<?xml version="1.0" encoding="UTF-8" standalone="no"?>
<!-- Creator: fig2dev Version 3.2.8b -->
<!-- CreationDate: 2025-09-29 17:34:45 -->
<!-- Magnification: 1.05 -->
<svg	xmlns="http://www.w3.org/2000/svg"
	xmlns:xlink="http://www.w3.org/1999/xlink"
	width="352pt" height="232pt"
	viewBox="9878 4343 5586 3677">
<g fill="none">
<!-- Line -->
<polygon points=" 9900,6075 9900,6840 10800,6840 10800,6165 10125,6165 10080,6075"
	stroke="#606c71" stroke-width="15px"/>
<!-- Line -->
<polygon points=" 10891,6435 11386,6390 11386,6300 11611,6480 11386,6660 11386,6570 10891,6525
" fill="#606c71"
	stroke="#606c71" stroke-width="8px"/>
<!-- Line -->
<polyline points=" 12420,5625 12420,5445 12330,5445 12510,5220 12690,5445 12600,5445 12600,5670
" fill="#606c71"
	stroke="#606c71" stroke-width="8px"/>
<!-- Line -->
<polyline points=" 12420,5580 12420,5715 12330,5715 12510,5940 12690,5715 12600,5715 12600,5580
" fill="#606c71"
	stroke="#606c71" stroke-width="8px"/>
<!-- Line -->
<polygon points=" 13410,6435 13905,6390 13905,6300 14130,6480 13905,6660 13905,6570 13410,6525
" fill="#606c71"
	stroke="#606c71" stroke-width="8px"/>
<!-- Line -->
<polygon points=" 14220,6075 14220,6840 15120,6840 15120,6165 14445,6165 14400,6075"
	stroke="#606c71" stroke-width="15px"/>
<!-- Line -->
<polygon points=" 12060,4365 12060,5130 12960,5130 12960,4455 12285,4455 12240,4365"
	stroke="#606c71" stroke-width="15px"/>
<!-- Line -->
<rect x="11700" y="6030" width="1620" height="945"
	stroke="#000000" stroke-width="30px"/>
<!-- Line -->
<defs>
<clipPath id="cp0">
	<path clip-rule="evenodd" d="M 9878,4343 H 15464 V 8020 H 9878 z
		M 12495,7289 12435,7289 12458,7432 12472,7432z
		M 12435,7156 12495,7156 12472,7013 12458,7013z"/>
</clipPath>
</defs>
<polyline points=" 12465,7020 12465,7425" clip-path="url(#cp0)"
	stroke="#000000" stroke-width="8px"/>
<!-- Forward arrow to point 12465,7425 -->
<polygon points=" 12435,7289 12465,7409 12495,7289 12435,7289"
	stroke="#000000" stroke-width="8px" stroke-miterlimit="8" fill="#000000"/>
<!-- Backward arrow to point 12465,7020 -->
<polygon points=" 12495,7156 12465,7036 12435,7156 12495,7156"
	stroke="#000000" stroke-width="8px" stroke-miterlimit="8" fill="#000000"/>
<!-- Line -->
<defs>
<clipPath id="cp1">
	<path clip-rule="evenodd" d="M 9878,4343 H 15464 V 8020 H 9878 z
		M 13305,7289 13245,7289 13268,7432 13282,7432z
		M 13245,7156 13305,7156 13282,7013 13268,7013z"/>
</clipPath>
</defs>
<polyline points=" 13275,7020 13275,7425" clip-path="url(#cp1)"
	stroke="#000000" stroke-width="8px"/>
<!-- Forward arrow to point 13275,7425 -->
<polygon points=" 13245,7289 13275,7409 13305,7289 13245,7289"
	stroke="#000000" stroke-width="8px" stroke-miterlimit="8" fill="#000000"/>
<!-- Backward arrow to point 13275,7020 -->
<polygon points=" 13305,7156 13275,7036 13245,7156 13305,7156"
	stroke="#000000" stroke-width="8px" stroke-miterlimit="8" fill="#000000"/>
<!-- Line -->
<defs>
<clipPath id="cp2">
	<path clip-rule="evenodd" d="M 9878,4343 H 15464 V 8020 H 9878 z
		M 13305,7289 13245,7289 13268,7432 13282,7432z
		M 11760,7156 11820,7156 11797,7013 11783,7013z"/>
</clipPath>
</defs>
<polyline points=" 11790,7020 11790,7425" clip-path="url(#cp2)"
	stroke="#000000" stroke-width="8px"/>
<!-- Backward arrow to point 11790,7020 -->
<polygon points=" 11820,7156 11790,7036 11760,7156 11820,7156"
	stroke="#000000" stroke-width="8px" stroke-miterlimit="8" fill="#000000"/>
<!-- Text -->
<text xml:space="preserve" x="9945" y="6660" fill="#606c71" font-family="Helvetica" font-style="normal" font-weight="normal" font-size="216" text-anchor="start">directory</text>
<!-- Text -->
<text xml:space="preserve" x="14265" y="6660" fill="#606c71" font-family="Helvetica" font-style="normal" font-weight="normal" font-size="216" text-anchor="start">directory</text>
<!-- Text -->
<text xml:space="preserve" x="9945" y="6435" fill="#606c71" font-family="Helvetica" font-style="normal" font-weight="bold" font-size="216" text-anchor="start">input</text>
<!-- Text -->
<text xml:space="preserve" x="14265" y="6435" fill="#606c71" font-family="Helvetica" font-style="normal" font-weight="bold" font-size="216" text-anchor="start">result</text>
<!-- Text -->
<text xml:space="preserve" x="12510" y="4815" fill="#606c71" font-family="Helvetica" font-style="normal" font-weight="bold" font-size="216" text-anchor="middle">workdir</text>
<!-- Text -->
<text xml:space="preserve" x="12510" y="6570" fill="#000000" font-family="Helvetica" font-style="normal" font-weight="normal" font-size="216" text-anchor="middle">exax</text>
<!-- Text -->
<text xml:space="preserve" x="11790" y="7695" fill="#00008f" font-family="Helvetica" font-style="normal" font-weight="normal" font-size="216" text-anchor="middle">Python</text>
<!-- Text -->
<text xml:space="preserve" x="13275" y="7695" fill="#00008f" font-family="Helvetica" font-style="normal" font-weight="normal" font-size="216" text-anchor="middle">web</text>
<!-- Text -->
<text xml:space="preserve" x="12510" y="7695" fill="#00008f" font-family="Helvetica" font-style="normal" font-weight="normal" font-size="216" text-anchor="middle">shell</text>
<!-- Text -->
<text xml:space="preserve" x="13275" y="7920" fill="#00008f" font-family="Helvetica" font-style="normal" font-weight="normal" font-size="216" text-anchor="middle">browser</text>
<!-- Text -->
<text xml:space="preserve" x="12510" y="7920" fill="#00008f" font-family="Helvetica" font-style="normal" font-weight="normal" font-size="216" text-anchor="middle">cmds</text>
<!-- Text -->
<text xml:space="preserve" x="11790" y="7920" fill="#00008f" font-family="Helvetica" font-style="normal" font-weight="normal" font-size="216" text-anchor="middle">scripts</text>
</g>
</svg>
